<?xml version="1.0" encoding="UTF-8"?>
<svg id="Camada_1" xmlns="http://www.w3.org/2000/svg" version="1.1" viewBox="0 0 120 40">
  <!-- Generator: Adobe Illustrator 30.3.0, SVG Export Plug-In . SVG Version: 2.1.3 Build 182)  -->
  <rect y="4" width="36" height="32" rx="5" ry="5" fill="#111" stroke="#00e676" stroke-width="1.4"/>
  <path d="M5,4h26c2.76,0,5,2.01,5,4.5h0c0,2.49-2.24,4.5-5,4.5H5c-2.76,0-5-2.01-5-4.5h0c0-2.49,2.24-4.5,5-4.5Z" fill="#1a1a1a"/>
  <rect x="8" y="4" width="36" height="4" fill="#1a1a1a"/>
  <circle cx="6" cy="8.5" r="1.5" fill="#ff5f57"/>
  <circle cx="11" cy="8.5" r="1.5" fill="#febc2e"/>
  <circle cx="16" cy="8.5" r="1.5" fill="#28c840"/>
  <g isolation="isolate">
    <path d="M6.95,17.91v-.36c0-.07.01-.12.04-.15.03-.03.06-.04.1-.04s.08.02.1.04c.03.03.04.08.04.15v.36c.15.01.28.04.38.07s.22.1.36.19c0-.06.02-.1.04-.13s.06-.04.1-.04c.04,0,.08.01.11.04.03.03.04.08.04.15v.43c0,.07-.01.12-.04.15s-.06.04-.11.04c-.04,0-.07-.01-.09-.04-.02-.02-.04-.06-.05-.12-.01-.11-.08-.2-.21-.29-.19-.12-.41-.18-.66-.18s-.47.08-.64.23c-.17.15-.25.32-.25.51s.07.33.22.43c.11.08.35.15.71.22.36.07.6.13.73.19.18.08.32.19.41.33.09.14.13.3.13.5,0,.26-.1.49-.3.69s-.49.32-.88.35v.84c0,.07-.01.12-.04.15-.03.03-.06.04-.1.04s-.08-.01-.1-.04c-.03-.03-.04-.08-.04-.15v-.84c-.35-.02-.65-.14-.89-.34,0,.1,0,.16-.01.18,0,.02-.02.04-.05.06-.02.02-.05.03-.08.03-.04,0-.08-.02-.1-.04s-.04-.08-.04-.15v-.56c0-.07.01-.12.04-.15.03-.03.06-.05.1-.05.04,0,.08.01.11.04.02.02.03.07.04.14.01.12.11.24.29.37.18.13.43.19.74.19s.57-.08.76-.23.28-.33.28-.53c0-.13-.03-.25-.1-.34s-.18-.17-.32-.24c-.1-.04-.3-.09-.6-.14-.44-.09-.75-.2-.92-.33-.17-.14-.26-.34-.26-.6,0-.25.09-.47.28-.66.19-.19.44-.31.75-.34Z" fill="#00e676"/>
  </g>
  <path d="M11,17h12c.55,0,1,.45,1,1h0c0,.55-.45,1-1,1h-12c-.55,0-1-.45-1-1h0c0-.55.45-1,1-1Z" fill="#efefef" isolation="isolate" opacity=".6"/>
  <rect x="25" y="17" width="4" height="6" rx="1" ry="1" fill="#00e676" isolation="isolate" opacity=".9"/>
  <path d="M6,26h6c.55,0,1,.45,1,1h0c0,.55-.45,1-1,1h-6c-.55,0-1-.45-1-1h0c0-.55.45-1,1-1Z" fill="#606060" isolation="isolate" opacity=".5"/>
</svg>