<?xml version="1.0" encoding="UTF-8"?>
<svg id="Camada_1" xmlns="http://www.w3.org/2000/svg" version="1.1" viewBox="0 0 1080 1080">
  <!-- Generator: Adobe Illustrator 30.3.0, SVG Export Plug-In . SVG Version: 2.1.3 Build 182)  -->
  <path d="M607.06,486.74c27.02,32.59,25.92,80.03-4.01,110.59-30.22,30.85-78.92,32.75-111.62,5.07l-95.8,95.89c29.25,36.51,18.56,88.74-21.24,110.61-40.48,22.25-90.61,1.28-104.26-41.76-14.07-44.34,16.13-89.95,62.52-94.57v-265.18c-38.26-3.74-66.56-36.02-65.99-73.59.59-38.53,31.36-70.02,69.71-71.63,38.4-1.62,71.8,26.97,75.58,65.92h274.34c4.58-39.92,43.52-65.56,81.63-54.16,37.35,11.18,56.48,53.65,38.76,89.21-17.6,35.32-63.54,47.77-97.11,21.3l-102.52,102.29ZM325.87,281.96c-31.47,7.96-47.18,39.52-38.99,68.28,8.12,28.52,37.49,44.99,66.2,37.75,29.33-7.4,46.95-37.22,39.44-66.7-7.2-28.27-35.75-47.15-66.65-39.33ZM482.11,593.11c-28.57-34.49-24.86-82.12,5.09-111.58,30.02-29.53,77.65-31.58,110.48-3.92l102.33-102.56c-8.08-11.16-11.98-21.33-13.9-33.28h-274.15c-3.47,35.01-30.62,62.1-65.65,65.64v265.08c14.9,1.64,27.66,7.63,40.2,16.15l95.6-95.52ZM325.87,692.08c-31.47,7.96-47.18,39.52-38.99,68.28,8.12,28.52,37.49,44.99,66.2,37.75,29.33-7.4,46.95-37.22,39.44-66.7-7.2-28.27-35.75-47.15-66.65-39.33Z" fill="#01e676"/>
</svg>