<svg xmlns="http://www.w3.org/2000/svg" viewBox="0 0 1200 675"><rect width="1200" height="675" rx="38" fill="#101b20"/><circle cx="190" cy="120" r="170" fill="#95b8ff" opacity=".13"/><path d="M230 190h305c68 0 112 32 135 75 23-43 67-75 135-75h165v310H805c-68 0-112 24-135 64-23-40-67-64-135-64H230z" fill="#f4f5ec" opacity=".08" stroke="#95b8ff" stroke-width="4"/><path d="M670 265v260" stroke="#95b8ff" stroke-width="5"/><path d="M300 280h235M300 335h185M760 280h140M760 335h175" stroke="#f4f5ec" stroke-width="18" stroke-linecap="round" opacity=".72"/><circle cx="982" cy="455" r="74" fill="#c8f36a"/><path d="M982 416v78M943 455h78" stroke="#172019" stroke-width="18" stroke-linecap="round"/></svg>